<?xml version="1.0" encoding="UTF-8"?><svg id="Layer_2" xmlns="http://www.w3.org/2000/svg" viewBox="0 0 1648.62 1510.88"><defs><style>.cls-1{fill:#e2e0e0;}.cls-2{fill:#fff;stroke:#231f20;stroke-miterlimit:10;}.cls-3{fill:#c91f42;}</style></defs><g id="Contact2"><rect class="cls-1" width="1648.62" height="1510.88"/><g><path class="cls-3" d="M139.02,107.17v5.41h-22.57v-34.32h6.55v28.91h16.02Z"/><path class="cls-3" d="M161.43,105.04l3.22,3.48c-1.87,2.44-5.46,4.37-10.4,4.37-8.16,0-13.1-5.15-13.1-12.53s4.89-12.64,12.43-12.64,11.28,4.94,11.28,11.54c0,1.56-.26,2.55-.26,2.55h-17.06c.57,3.64,3.07,6.14,7.38,6.14,3.54,0,5.46-1.66,6.5-2.91Zm-13.88-6.81h11.34c-.05-3.22-2.08-5.56-5.3-5.56s-5.46,2.13-6.03,5.56Z"/><path class="cls-3" d="M187.69,111.18s-2.55,1.72-7.02,1.72c-6.4,0-9.52-3.43-9.52-10.24v-9.72h-3.8v-4.89h3.95v-7.02l6.19-.26v7.28h8.89v4.89h-8.89v9.52c0,3.48,1.3,5.1,4.21,5.1,2.65,0,4.16-1.35,4.16-1.35l1.82,4.99Z"/><path class="cls-3" d="M224.72,88.04v24.54l-4.99,.21c-.42-1.72-.73-4.26-.73-4.99h-.1c-1.25,2.86-3.69,5.1-7.8,5.1-5.98,0-9.26-4.11-9.26-9.78v-15.08h6.34v14.2c0,3.17,1.61,5.25,4.73,5.25,3.64,0,5.46-3.64,5.46-6.71v-12.74h6.34Z"/><path class="cls-3" d="M244.68,95.68c0-2.13-1.72-3.48-4.42-3.48s-4,1.2-4,2.86c0,5.15,14.46,1.2,14.56,10.61,0,4.42-4.06,7.23-10.56,7.23-6.97,0-10.3-2.96-11.18-3.69l3.17-3.9c.68,.62,4.16,2.96,7.85,2.96,2.86,0,4.26-.94,4.26-2.34,0-4.26-14.14-1.61-14.14-10.61,0-4.58,4.06-7.59,10.24-7.59s9.93,2.91,9.93,6.92c0,.99-.21,1.66-.21,1.66l-5.62,.36c.05-.21,.1-.62,.1-.99Z"/><path class="cls-3" d="M275.52,102.03h-2.39v10.56h-6.34v-36.71h6.34v21.27h3.07l7.07-9.1h7.23l-9.62,11.7,10.66,12.84h-7.75l-8.27-10.56Z"/><path class="cls-3" d="M317.69,97.5v15.08h-6.34v-14.2c0-3.17-1.66-5.25-4.78-5.25-4.06,0-5.88,3.64-5.88,6.71v12.74h-6.34v-24.54l4.89-.21c.47,1.72,.78,4.26,.78,5.36h.16c1.25-2.96,3.74-5.46,8.22-5.46,6.03,0,9.31,4.11,9.31,9.78Z"/><path class="cls-3" d="M348.01,100.36c0,7.38-5.1,12.53-12.84,12.53s-12.84-5.15-12.84-12.53,5.15-12.64,12.84-12.64,12.84,5.25,12.84,12.64Zm-6.45,0c0-4.37-2.5-7.44-6.4-7.44s-6.4,3.07-6.4,7.44,2.5,7.33,6.4,7.33,6.4-3.02,6.4-7.33Z"/><path class="cls-3" d="M388.52,88.04l-7.23,24.54h-7.33l-4-13.88c-.21-.73-.42-1.92-.47-2.44h-.16c-.05,.52-.26,1.72-.42,2.44l-4.16,13.88h-7.23l-7.54-24.54h6.71l3.95,15.34c.31,1.4,.57,2.29,.68,3.12h.16c.16-.83,.42-1.87,.73-3.12l4.32-15.34h5.82l4.26,15.24c.31,1.25,.62,2.6,.73,3.22h.16c.1-.62,.31-1.87,.68-3.22l3.9-15.24h6.45Z"/><path class="cls-3" d="M426.79,97.5v15.08h-6.34v-14.2c0-3.17-1.61-5.25-4.78-5.25-4.06,0-5.88,3.59-5.88,6.71v12.74h-6.34v-36.71h6.24v16.28h.16c1.3-2.5,3.69-4.42,7.64-4.42,6.08,0,9.31,4.11,9.31,9.78Z"/><path class="cls-3" d="M457.16,100.36c0,7.38-5.1,12.53-12.84,12.53s-12.84-5.15-12.84-12.53,5.15-12.64,12.84-12.64,12.84,5.25,12.84,12.64Zm-6.45,0c0-4.37-2.5-7.44-6.4-7.44s-6.4,3.07-6.4,7.44,2.5,7.33,6.4,7.33,6.4-3.02,6.4-7.33Z"/><path class="cls-3" d="M497.66,88.04l-7.23,24.54h-7.33l-4-13.88c-.21-.73-.42-1.92-.47-2.44h-.16c-.05,.52-.26,1.72-.42,2.44l-4.16,13.88h-7.23l-7.54-24.54h6.71l3.95,15.34c.31,1.4,.57,2.29,.68,3.12h.16c.16-.83,.42-1.87,.73-3.12l4.32-15.34h5.82l4.26,15.24c.31,1.25,.62,2.6,.73,3.22h.16c.1-.62,.31-1.87,.68-3.22l3.9-15.24h6.45Z"/><path class="cls-3" d="M548.73,88.04l-7.23,24.54h-7.33l-4-13.88c-.21-.73-.42-1.92-.47-2.44h-.16c-.05,.52-.26,1.72-.42,2.44l-4.16,13.88h-7.23l-7.54-24.54h6.71l3.95,15.34c.31,1.4,.57,2.29,.68,3.12h.16c.16-.83,.42-1.87,.73-3.12l4.32-15.34h5.82l4.26,15.24c.31,1.25,.62,2.6,.73,3.22h.16c.1-.62,.31-1.87,.68-3.22l3.9-15.24h6.45Z"/><path class="cls-3" d="M571.14,105.04l3.22,3.48c-1.87,2.44-5.46,4.37-10.4,4.37-8.17,0-13.1-5.15-13.1-12.53s4.89-12.64,12.43-12.64,11.29,4.94,11.29,11.54c0,1.56-.26,2.55-.26,2.55h-17.06c.57,3.64,3.07,6.14,7.38,6.14,3.54,0,5.46-1.66,6.5-2.91Zm-13.88-6.81h11.34c-.05-3.22-2.08-5.56-5.3-5.56s-5.46,2.13-6.03,5.56Z"/><path class="cls-3" d="M612.06,96.31c0,1.04-.16,1.72-.16,1.72l-5.67,.36c.05-.16,.1-.62,.1-1.14,0-2.39-1.61-4.32-4.63-4.32-3.69,0-6.14,2.91-6.14,7.28s2.39,7.49,6.92,7.49c4.06,0,6.19-2.03,6.97-2.96l3.22,3.95c-1.77,2.24-5.41,4.21-10.56,4.21-8.06,0-13-5.15-13-12.48s5.15-12.69,12.64-12.69c6.4,0,10.3,3.8,10.3,8.58Z"/><path class="cls-3" d="M640.77,112.48s-1.4,.36-3.12,.36c-3.17,0-4.94-1.25-5.36-3.9-.73,1.4-2.81,3.95-8.06,3.95s-8.32-2.7-8.32-6.76c0-5.88,5.98-7.59,15.65-7.75h.42v-1.2c0-2.76-1.66-4.58-4.94-4.58-3.02,0-4.68,1.2-4.68,3.22,0,.42,.1,.73,.21,.99l-5.62,.94s-.31-.99-.31-2.29c0-4.63,4-7.75,10.61-7.75,7.02,0,10.92,3.64,10.92,9.62v8.63c0,1.25,.42,1.66,1.46,1.66,.31,0,.62-.05,.88-.1l.26,4.94Zm-8.79-8.53v-2.08h-.42c-6.66,.1-9.46,1.14-9.46,3.59,0,1.66,1.35,2.6,3.8,2.6,3.85,0,6.08-2.03,6.08-4.11Z"/><path class="cls-3" d="M668.59,97.5v15.08h-6.34v-14.2c0-3.17-1.66-5.25-4.78-5.25-4.06,0-5.88,3.64-5.88,6.71v12.74h-6.34v-24.54l4.89-.21c.47,1.72,.78,4.26,.78,5.36h.16c1.25-2.96,3.74-5.46,8.22-5.46,6.03,0,9.31,4.11,9.31,9.78Z"/><path class="cls-3" d="M708.88,97.5v15.08h-6.34v-14.2c0-3.17-1.61-5.25-4.78-5.25-4.06,0-5.88,3.59-5.88,6.71v12.74h-6.34v-36.71h6.24v16.28h.16c1.3-2.5,3.69-4.42,7.64-4.42,6.08,0,9.31,4.11,9.31,9.78Z"/><path class="cls-3" d="M733.9,105.04l3.22,3.48c-1.87,2.44-5.46,4.37-10.4,4.37-8.16,0-13.1-5.15-13.1-12.53s4.89-12.64,12.43-12.64,11.28,4.94,11.28,11.54c0,1.56-.26,2.55-.26,2.55h-17.06c.57,3.64,3.07,6.14,7.38,6.14,3.54,0,5.46-1.66,6.5-2.91Zm-13.88-6.81h11.34c-.05-3.22-2.08-5.56-5.3-5.56s-5.46,2.13-6.03,5.56Z"/><path class="cls-3" d="M742.32,75.87h6.29v36.71h-6.29v-36.71Z"/><path class="cls-3" d="M780.33,100.36c0,7.8-4.84,12.53-11.49,12.53-3.59,0-6.14-1.56-7.59-3.69v13.99h-6.34v-35.15l4.89-.21c.47,1.56,.78,4.37,.78,5.15h.1c1.3-2.96,4-5.25,8.53-5.25,6.71,0,11.13,5.2,11.13,12.64Zm-6.45,0c0-4.42-2.44-7.33-6.29-7.33s-6.34,3.43-6.34,6.55v1.46c0,3.02,2.18,6.55,6.55,6.55,3.69,0,6.08-2.86,6.08-7.23Z"/><path class="cls-3" d="M787.77,105.41c2.08,0,3.74,1.72,3.74,3.8s-1.66,3.69-3.74,3.69-3.74-1.66-3.74-3.69,1.66-3.8,3.74-3.8Z"/></g><g><path d="M125.62,218.04h-2.97l-7.86-12.42c-.78-1.26-1.95-3.33-2.1-3.66l-.15,.09c.09,.27,.18,1.95,.18,3.54l.06,12.45h-2.73v-19.8h3.03l7.86,12.54c1.23,1.98,1.77,3.12,2.01,3.6l.18-.09c-.03-.42-.18-1.89-.18-3.57l-.06-12.48h2.73v19.8Z"/><path d="M143.24,218.01s-.69,.18-1.44,.18c-1.47,0-2.55-.69-2.55-2.34v-.03h-.06c-.39,.72-1.62,2.4-4.92,2.4-3.12,0-4.8-1.62-4.8-3.93,0-3.09,2.94-4.32,9.18-4.32h.42v-.9c0-1.92-1.17-3.15-3.51-3.15-2.01,0-3.24,.81-3.24,2.28,0,.33,.06,.51,.15,.72l-2.49,.42s-.18-.54-.18-1.23c0-2.58,2.22-4.41,5.82-4.41,3.84,0,6.09,2.07,6.09,5.34v5.73c0,.78,.21,1.08,.87,1.08,.18,0,.39-.03,.51-.06l.15,2.22Zm-4.17-4.86v-1.35h-.42c-4.83,0-6.48,.87-6.48,2.43,0,1.11,.84,1.77,2.64,1.77,2.76,0,4.26-1.53,4.26-2.85Z"/><path d="M168.85,209.43v8.61h-2.67v-8.61c0-2.07-1.17-3.45-3.3-3.45-2.67,0-3.99,2.61-3.99,4.65v7.41h-2.67v-8.61c0-2.07-1.17-3.45-3.3-3.45-2.67,0-3.99,2.61-3.99,4.65v7.41h-2.64v-14.16l1.86-.09c.24,1.08,.36,2.67,.36,3.3,.72-1.8,2.28-3.33,4.86-3.33s4.35,1.26,5.1,3.3c.75-1.8,2.31-3.3,4.86-3.3,3.39,0,5.52,2.28,5.52,5.67Z"/><path d="M174.79,211.68c.27,2.61,2.04,4.32,4.86,4.32,2.16,0,3.39-1.02,4.02-1.86l1.62,1.47c-1.32,1.74-3.42,2.61-5.85,2.61-4.53,0-7.38-2.91-7.38-7.23s2.73-7.29,7.02-7.29,6.45,2.91,6.45,6.63c0,.84-.12,1.35-.12,1.35h-10.62Zm.06-1.89h7.98c-.03-2.34-1.5-3.87-3.75-3.87s-3.84,1.59-4.23,3.87Z"/><path d="M192.47,203.58l-2.34,3.21-1.29-.93,2.79-3.09-4.05-.45,.18-1.53,3.96,.87-1.65-3.63,1.41-.63,1.38,3.84,2.43-3.42,1.26,.96-2.79,3.15,4.08,.42-.18,1.53-4.08-.81,1.74,3.66-1.44,.66-1.41-3.81Z"/></g><g><path d="M115.34,318.76v6.06h8.49v2.31h-8.49v6.81h9.54v2.31h-12.27v-19.8h12.27v2.31h-9.54Z"/><path d="M151.09,327.64v8.61h-2.67v-8.61c0-2.07-1.17-3.45-3.3-3.45-2.67,0-3.99,2.61-3.99,4.65v7.41h-2.67v-8.61c0-2.07-1.17-3.45-3.3-3.45-2.67,0-3.99,2.61-3.99,4.65v7.41h-2.64v-14.16l1.86-.09c.24,1.08,.36,2.67,.36,3.3,.72-1.8,2.28-3.33,4.86-3.33s4.35,1.26,5.1,3.3c.75-1.8,2.31-3.3,4.86-3.3,3.39,0,5.52,2.28,5.52,5.67Z"/><path d="M168.1,336.22s-.69,.18-1.44,.18c-1.47,0-2.55-.69-2.55-2.34v-.03h-.06c-.39,.72-1.62,2.4-4.92,2.4-3.12,0-4.8-1.62-4.8-3.93,0-3.09,2.94-4.32,9.18-4.32h.42v-.9c0-1.92-1.17-3.15-3.51-3.15-2.01,0-3.24,.81-3.24,2.28,0,.33,.06,.51,.15,.72l-2.49,.42s-.18-.54-.18-1.23c0-2.58,2.22-4.41,5.82-4.41,3.84,0,6.09,2.07,6.09,5.34v5.73c0,.78,.21,1.08,.87,1.08,.18,0,.39-.03,.51-.06l.15,2.22Zm-4.17-4.86v-1.35h-.42c-4.83,0-6.48,.87-6.48,2.43,0,1.11,.84,1.77,2.64,1.77,2.76,0,4.26-1.53,4.26-2.85Z"/><path d="M172.6,319.27c-1.02,0-1.83-.75-1.83-1.77s.81-1.8,1.83-1.8,1.86,.78,1.86,1.8-.84,1.77-1.86,1.77Zm-1.41,2.82l2.67-.09v14.25h-2.67v-14.16Z"/><path d="M178.12,315.07h2.64v21.18h-2.64v-21.18Z"/><path d="M189.01,321.79l-2.34,3.21-1.29-.93,2.79-3.09-4.05-.45,.18-1.53,3.96,.87-1.65-3.63,1.41-.63,1.38,3.84,2.43-3.42,1.26,.96-2.79,3.15,4.08,.42-.18,1.53-4.08-.81,1.74,3.66-1.44,.66-1.41-3.81Z"/></g><g><path d="M115.79,430.24c-2.31,0-3.81,1.11-3.81,3,0,4.2,10.83,2.07,10.83,9.48,0,3.18-2.79,5.28-7.05,5.28-3.54,0-6.09-1.32-7.29-2.34l1.71-2.13c.81,.72,2.58,2.07,5.58,2.07,2.73,0,4.35-1.11,4.35-2.88,0-5.28-10.89-2.7-10.89-9.45,0-3.24,2.7-5.43,6.57-5.43,5.37,0,6.54,3.42,6.9,4.83l-2.55,.63c-.18-1.05-1.26-3.06-4.35-3.06Z"/><path d="M138.67,433.66v14.16l-1.92,.09c-.24-1.08-.36-2.67-.36-3h-.03c-.78,1.71-2.28,3.09-4.71,3.09-3.39,0-5.52-2.28-5.52-5.67v-8.67h2.67v8.67c0,2.07,1.17,3.45,3.3,3.45,2.61,0,3.93-2.67,3.93-4.71v-7.41h2.64Z"/><path d="M157.25,440.77c0,4.35-2.76,7.23-6.9,7.23-2.82,0-4.53-1.5-5.25-3.39,.03,.57-.15,2.25-.36,3.21h-1.86v-21.18h2.64v9.45c.9-1.47,2.49-2.61,4.98-2.61,3.99,0,6.75,2.91,6.75,7.29Zm-2.7,0c0-3.03-1.74-5.07-4.53-5.07-3,0-4.5,2.67-4.5,4.77v.57c0,2.13,1.41,4.74,4.68,4.74,2.64,0,4.35-2.01,4.35-5.01Z"/><path d="M158.33,451.84c1.8,0,2.52-.99,2.52-2.79v-15.39l2.67-.09v14.97c0,3.51-1.59,5.52-4.95,5.52-1.83,0-2.7-.84-2.7-.84l.81-1.83s.6,.45,1.65,.45Zm3.9-21c-1.02,0-1.83-.75-1.83-1.77s.81-1.8,1.83-1.8,1.86,.78,1.86,1.8-.84,1.77-1.86,1.77Z"/><path d="M169.63,441.46c.27,2.61,2.04,4.32,4.86,4.32,2.16,0,3.39-1.02,4.02-1.86l1.62,1.47c-1.32,1.74-3.42,2.61-5.85,2.61-4.53,0-7.38-2.91-7.38-7.23s2.73-7.29,7.02-7.29,6.45,2.91,6.45,6.63c0,.84-.12,1.35-.12,1.35h-10.62Zm.06-1.89h7.98c-.03-2.34-1.5-3.87-3.75-3.87s-3.84,1.59-4.23,3.87Z"/><path d="M195.85,438.31c0,.6-.09,.96-.09,.96l-2.46,.18c.03-.15,.06-.42,.06-.75,0-1.74-1.26-3-3.39-3-2.67,0-4.47,2.01-4.47,5.07s1.71,5.01,4.71,5.01c2.67,0,3.81-1.23,4.35-1.89l1.56,1.68c-1.32,1.59-3.45,2.43-6,2.43-4.41,0-7.32-2.91-7.32-7.17s2.94-7.35,7.11-7.35c3.63,0,5.94,2.13,5.94,4.83Z"/><path d="M208.84,447.07s-1.41,.93-3.72,.93c-3.66,0-5.13-1.95-5.13-5.58v-6.63h-2.25v-2.13h2.25v-4.2l2.67-.15v4.35h5.49v2.13h-5.49v6.54c0,2.28,.81,3.42,2.73,3.42,1.65,0,2.61-.81,2.61-.81l.84,2.13Z"/><path d="M215.2,433.36l-2.34,3.21-1.29-.93,2.79-3.09-4.05-.45,.18-1.53,3.96,.87-1.65-3.63,1.41-.63,1.38,3.84,2.43-3.42,1.26,.96-2.79,3.15,4.08,.42-.18,1.53-4.08-.81,1.74,3.66-1.44,.66-1.41-3.81Z"/></g><g><path d="M130.15,589.16h-2.73l.06-12.18c0-.84,.09-2.43,.12-2.58l-.12-.03c-.09,.33-.51,1.74-.75,2.25l-5.73,12.6h-1.68l-5.94-12.81c-.45-.96-.63-1.89-.66-2.04l-.12,.03c.03,.15,.12,1.74,.12,2.58l.06,12.18h-2.73v-19.8h2.97l6,13.14c.36,.81,.93,2.25,1.11,2.76h.06c.15-.51,.78-1.95,1.14-2.76l6-13.14h2.82v19.8Z"/><path d="M136.69,582.8c.27,2.61,2.04,4.32,4.86,4.32,2.16,0,3.39-1.02,4.02-1.86l1.62,1.47c-1.32,1.74-3.42,2.61-5.85,2.61-4.53,0-7.38-2.91-7.38-7.23s2.73-7.29,7.02-7.29,6.45,2.91,6.45,6.63c0,.84-.12,1.35-.12,1.35h-10.62Zm.06-1.89h7.98c-.03-2.34-1.5-3.87-3.75-3.87s-3.84,1.59-4.23,3.87Z"/><path d="M158.8,579.38c0-1.47-1.29-2.34-3.15-2.34s-2.79,.81-2.79,1.98c0,3.33,8.52,.93,8.61,6.3,.03,2.55-2.4,4.02-5.85,4.02s-5.31-1.47-6.12-2.13l1.62-1.8c.6,.57,2.37,1.71,4.53,1.71s3.12-.75,3.12-1.83c0-2.91-8.61-1.05-8.61-6.3,0-2.34,2.22-4.17,5.55-4.17s5.55,1.74,5.55,4.08c0,.57-.12,.99-.12,.99l-2.43,.18c.06-.21,.09-.48,.09-.69Z"/><path d="M172.93,579.38c0-1.47-1.29-2.34-3.15-2.34s-2.79,.81-2.79,1.98c0,3.33,8.52,.93,8.61,6.3,.03,2.55-2.4,4.02-5.85,4.02s-5.31-1.47-6.12-2.13l1.62-1.8c.6,.57,2.37,1.71,4.53,1.71s3.12-.75,3.12-1.83c0-2.91-8.61-1.05-8.61-6.3,0-2.34,2.22-4.17,5.55-4.17s5.55,1.74,5.55,4.08c0,.57-.12,.99-.12,.99l-2.43,.18c.06-.21,.09-.48,.09-.69Z"/><path d="M191.95,589.13s-.69,.18-1.44,.18c-1.47,0-2.55-.69-2.55-2.34v-.03h-.06c-.39,.72-1.62,2.4-4.92,2.4-3.12,0-4.8-1.62-4.8-3.93,0-3.09,2.94-4.32,9.18-4.32h.42v-.9c0-1.92-1.17-3.15-3.51-3.15-2.01,0-3.24,.81-3.24,2.28,0,.33,.06,.51,.15,.72l-2.49,.42s-.18-.54-.18-1.23c0-2.58,2.22-4.41,5.82-4.41,3.84,0,6.09,2.07,6.09,5.34v5.73c0,.78,.21,1.08,.87,1.08,.18,0,.39-.03,.51-.06l.15,2.22Zm-4.17-4.86v-1.35h-.42c-4.83,0-6.48,.87-6.48,2.43,0,1.11,.84,1.77,2.64,1.77,2.76,0,4.26-1.53,4.26-2.85Z"/><path d="M208.24,591.02c0,2.43-1.98,4.41-7.38,4.41-5.1,0-7.44-1.5-7.44-3.9,0-1.38,.81-2.43,2.4-3-.84-.48-1.38-1.23-1.38-2.4s.84-1.98,1.86-2.37c-1.08-.9-1.68-2.19-1.68-3.75,0-3.09,2.4-5.16,6.03-5.16,1.68,0,3.12,.45,4.17,1.23,1.02-.48,1.47-1.65,1.47-3.39l2.25,.48c0,2.7-1.8,3.75-2.73,3.9,.6,.81,.93,1.8,.93,2.94,0,3.09-2.43,5.16-6.06,5.16-.93,0-1.8-.15-2.55-.39-.78,.12-1.29,.45-1.29,1.02,0,.99,1.14,1.23,3.09,1.23h2.94c3.36,0,5.37,1.38,5.37,3.99Zm-2.61,0c0-1.44-1.14-1.74-3.27-1.74h-3.15c-2.49,0-3.18,.84-3.18,1.86,0,1.44,1.38,2.07,4.83,2.07s4.77-.66,4.77-2.19Zm-8.34-11.01c0,1.8,1.32,2.97,3.36,2.97s3.42-1.17,3.42-2.97-1.35-2.97-3.39-2.97-3.39,1.17-3.39,2.97Z"/><path d="M212.56,582.8c.27,2.61,2.04,4.32,4.86,4.32,2.16,0,3.39-1.02,4.02-1.86l1.62,1.47c-1.32,1.74-3.42,2.61-5.85,2.61-4.53,0-7.38-2.91-7.38-7.23s2.73-7.29,7.02-7.29,6.45,2.91,6.45,6.63c0,.84-.12,1.35-.12,1.35h-10.62Zm.06-1.89h7.98c-.03-2.34-1.5-3.87-3.75-3.87s-3.84,1.59-4.23,3.87Z"/><path d="M230.23,574.7l-2.34,3.21-1.29-.93,2.79-3.09-4.05-.45,.18-1.53,3.96,.87-1.65-3.63,1.41-.63,1.38,3.84,2.43-3.42,1.26,.96-2.79,3.15,4.08,.42-.18,1.53-4.08-.81,1.74,3.66-1.44,.66-1.41-3.81Z"/></g><rect class="cls-2" x="297.42" y="183.47" width="1020.82" height="68.78"/><rect class="cls-2" x="297.42" y="301.5" width="1020.82" height="68.78"/><rect class="cls-2" x="297.42" y="413.61" width="1020.82" height="68.78"/><rect class="cls-2" x="297.42" y="547.98" width="1020.82" height="491.15"/></g></svg>