<?xml version="1.0" encoding="UTF-8"?><svg id="Layer_1" xmlns="http://www.w3.org/2000/svg" viewBox="0 0 262.21 239.87"><defs><style>.cls-1{fill:#231f20;}</style></defs><path class="cls-1" d="M123.57,28.55c-50.47,0-91.39,40.91-91.39,91.39s40.91,91.39,91.39,91.39,91.39-40.91,91.39-91.39S174.04,28.55,123.57,28.55Zm61.21,93.76c0,6.51-5.33,11.84-11.84,11.84h-36.79v36.79c0,6.51-5.33,11.84-11.84,11.84h-4.75c-6.51,0-11.84-5.33-11.84-11.84v-36.79h-33.53c-6.51,0-11.84-5.33-11.84-11.84v-4.75c0-6.51,5.33-11.84,11.84-11.84h33.53v-33.53c0-6.51,5.33-11.84,11.84-11.84h4.75c6.51,0,11.84,5.33,11.84,11.84v33.53h36.79c6.51,0,11.84,5.33,11.84,11.84v4.75Z"/></svg>