<?xml version="1.0" encoding="utf-8"?>
<!-- Generator: Adobe Illustrator 26.5.0, SVG Export Plug-In . SVG Version: 6.00 Build 0)  -->
<svg version="1.1" id="Layer_1" xmlns="http://www.w3.org/2000/svg" xmlns:xlink="http://www.w3.org/1999/xlink" x="0px" y="0px"
	 viewBox="0 0 54.4 82.4" style="enable-background:new 0 0 54.4 82.4;" xml:space="preserve">
<style type="text/css">
	.st0{fill:#BA1F43;}
	.st1{fill:#C91F42;}
	.st2{fill:#FFFFFF;}
	.st3{fill:none;stroke:#000000;stroke-width:12;stroke-miterlimit:10;}
	.st4{stroke:#000000;stroke-width:2;stroke-miterlimit:10;}
</style>
<path d="M49,50L49,50c0.1-0.2,0.1-0.3,0.1-0.3c2.4-18.9-18.9-25.9-20.7-26.4c-1.8-0.6-7-6.2-8.3-9.3c-1.3-3.2-6.9-10.3-6.9-10.3
	l-0.7,5.1L8.7,6l0.7,4.8c0,0-1.6,2.1-2.3,3.3c-0.7,1.2-0.4,3.8-0.4,3.8L5,21.2c0,0,2.4,2.6,4.5,2.7c0,0,3.3-1.9,4,0.9
	c0.9,3.8-0.6,8.8,0.3,11c1.6,4,5.7,8.8,5.7,8.8s1.4,11.7-1.8,12.1c-3.3,0.4-2.2,3.1-2.2,3.1l3.9,0.2c4.3-1.3,7.1-14.4,7.1-14.4
	c0.6,0.7,2.7,2.3,2.7,2.3s-2.5,4.3-2.1,5.6c0.5,1.3,3.8,3.9,3.8,3.9c-2.6,0.6-2.2,2.8-2.2,2.8s10.7,1.3,14.8-1.3
	c0.8-0.5,1.5-1.2,2.1-2c-2.4,9.2-7.9,15.8-14.2,16.5c-3,0.3-8-0.5-9.5-3.4c-1.3-2.8,1.2-5.9-0.3-7.3c-1-0.9-3.3-0.3-4.7,0.8
	c-2.2,1.9-2,5.8-1.2,8c2.1,5.7,10.8,9,18,7.6C44,77.3,48.1,66.6,48.6,65C51.1,58.3,49.6,52.3,49,50z M21.1,35.1c0,0-5.4-5.8-3.5-7.3
	c1.6-1.3,3.3,0.1,3.7,0.5c0.4-0.4,2.1-1.9,3.7-0.5C26.8,29.5,21.1,35.1,21.1,35.1z"/>
</svg>
