<?xml version="1.0" encoding="UTF-8"?><svg id="Layer_1" xmlns="http://www.w3.org/2000/svg" viewBox="0 0 262.21 239.87"><defs><style>.cls-1{stroke:#231f20;stroke-miterlimit:10;stroke-width:2px;}.cls-1,.cls-2{fill:#231f20;}</style></defs><line class="cls-1" x1="65.59" y1="134.73" x2="12.6" y2="127.02"/><line class="cls-1" x1="65.59" y1="144.07" x2="10.8" y2="148.53"/><line class="cls-1" x1="65.59" y1="156.25" x2="15.67" y2="169.64"/><line class="cls-1" x1="196.4" y1="132.7" x2="249.4" y2="124.99"/><line class="cls-1" x1="196.4" y1="142.04" x2="251.2" y2="146.5"/><line class="cls-1" x1="196.4" y1="154.22" x2="246.33" y2="167.61"/><path class="cls-2" d="M195.07,60.18l-14.71-10.14-17.84,26.24-29.42-.18h0l-4.14-.03v.05s-29.41,.16-29.41,.16l-30.85-45.37-7.58,130.34s45.03,37.45,69.31,46.1v.54c.26-.08,.52-.18,.77-.27,0,0,0,0,0,0h0c24.29-8.66,69.73-46.37,69.73-46.37l-5.88-101.07Zm-112.95,68.22c16.96-13.73,34.46,6.9,34.46,6.9-20.02,17.72-34.46-6.9-34.46-6.9Zm63.38,5.07s17.5-20.63,34.46-6.9c0,0-14.43,24.63-34.46,6.9Z"/></svg>