<?xml version="1.0" encoding="UTF-8"?><svg id="Index2" xmlns="http://www.w3.org/2000/svg" viewBox="0 0 423.73 432.63"><defs><style>.cls-1{fill:#fff;}.cls-2{fill:#c91f42;}</style></defs><circle class="cls-2" cx="193.73" cy="216.31" r="132.09"/><path class="cls-1" d="M229.48,152.81l-18.48-27.64-3.54,29.95-4.43,1.62-14.55-14.59,3.52,20.41-5.27,29.29-1.08,4.88,13.53,6.75,21.69-5.45s-2.83,17.47-14.18,25.55c-11.34,8.08-68.95,10.72-28.24,90.73,0,0-60.96-22.47-40.74-82.15,7.28-12.09-23.85-13.34-18.95,23.25,4.89,36.59,16.3,49.54,63.26,73.68,0,0,22.21,5.81,35.02-1.35,12.81-7.16,33.45-96.88,28.35-129.42-5.1-32.54-15.9-45.51-15.9-45.51Z"/></svg>