<?xml version="1.0" encoding="UTF-8"?><svg id="Layer_2" xmlns="http://www.w3.org/2000/svg" viewBox="0 0 96.27 19.75"><defs><style>.cls-1{fill:#fff;}</style></defs><g id="Layer_1-2"><g><g><path class="cls-1" d="M33.55,7.6c0,.46-.96,1.34-3.17,1.34-.32,0-1.16,0-1.16-.19,0-.4,3.21-.68,3.21-1.48,0-.1-.12-.18-.61-.18-1.24,0-4.24,.15-6.93,2.09,0,0-.54,.4-.54,.7,0,.42,2.02,.46,2.89,.46,1.29,.01,2.6,.31,2.6,1.39,0,2.06-4.73,3.69-7.79,3.72-.83,0-2.38-.52-2.38-1.34,0-.1,.07-.18,.31-.2,0,0,1.64-.18,2.1-.39,0,0,.11-.03,.18-.03,.04,0,.07,0,.07,.03s-.04,.08-.17,.18c-.36,.21-.72,.24-.72,.35,0,.01,.04,.03,.18,.03,.89,0,7.18-1.27,7.18-2.64,0-.21-.38-.31-.72-.31-.38,0-.83,.06-1.42,.06-1.17,0-3.65,0-3.65-1.64,0-.54,1.96-3.59,7.38-3.79,.33,0,3.16,.11,3.16,1.85Z"/><path class="cls-1" d="M33.18,9.77s.13-.1,.13-.17c0-.06-.07-.1-.29-.1-.08,0-.43,.03-.88,.03-.77,0-1.85-.01-1.91-.42,0,0-.43-.08-.43-.25,0-.1,.11-.06,.49-.13,0,0,2.78-.4,4.62-.54l.96-1.28c.07-.14,.35-.17,.64-.17,.21,0,.45,.04,.45,.21,0,.07-.04,.14-.11,.25l-.35,.49s-.07,.22-.08,.33c0,.06,.03,.1,.2,.1h.7c.68,0,1.46,.04,2.02,.38,0,0,.31,.1,.31,.25,0,.07-.04,.11-.17,.12-.42,.07-3.31,.4-4.19,.45-.53,.03-3.9,3.51-3.9,4.43,0,.08,.11,.17,.24,.17,.07,0,.18-.03,.33-.08,0,0,2.64-1.56,5.13-3.41,0,0,.13,.1,.13,.24,0,.07-.03,.17-.13,.25,0,0-3.85,3.66-5.27,4.12,0,0-.25,.07-.54,.07-.47,0-.96-.4-.96-1.36,0-.63,.96-2.27,2.88-3.97Z"/><path class="cls-1" d="M38.54,10.19c.45,0,.89-.06,1.29-.06,.14,0,.25,.03,.32,.1,.31,.4,.35,.46,.35,.53s-.04,.15-.17,.24c-.19,.17-2.7,1.73-2.7,2.5,0,.03,.03,.04,.07,.04,.52,0,2.56-1.28,5.07-3.05,0,0,.1,0,.1,.15,0,.35-4.23,4.2-5.59,4.2-.42,0-.97-.15-.97-.97,0-.63,.22-1.16,1.85-2.35-.36-.01-.81-.15-1.2-.36l-1.21,1.03c-.1,.07-.4,.15-.63,.15-.14,0-.25-.03-.25-.11,0-.06,.07-.15,.22-.28l1.46-1.04c-.32-.24-.53-.49-.53-.72s.22-.46,.82-.57c.49,.47,1.08,.57,1.7,.57Z"/><path class="cls-1" d="M43.99,13.29c1.04-.5,2.64-1.59,4.47-2.94,0,0,.12,.1,.12,.24,0,.07-.03,.17-.12,.25,0,0-4.41,3.9-5.16,3.9-.32,0-.47-.18-.47-.77,0-.26,.11-.79,.11-.89,0-.03,0-.04-.01-.04s-.04,.01-.08,.06c0,0-1.56,1.73-2.5,1.73,0,0-.61-.1-.61-.78,.01-1.14,3.24-4.38,5.2-4.4,.2,.01,.33,.18,.42,.38,0,0,.14-.14,.28-.14,.08,0,.12,.04,.24,.17,.1,.01,.25,.12,.25,.28,0,.07-.03,.19-.19,.33-1.29,1.59-1.88,2.14-1.92,2.63Zm.83-2.63s.06-.07,.06-.08-.01-.01-.04-.01c-1.14,0-3.47,2.35-3.47,2.8,0,.01,.01,.03,.03,.03,.36,0,3.42-2.73,3.42-2.73Z"/><path class="cls-1" d="M51.7,10.36c0,.06-.03,.13-.11,.22-4.83,5.37-6.33,9.17-8.84,9.17-.43,0-.92-.25-.92-.72,0-1.68,2.74-3.41,4.05-3.58,.19,0,.29,.04,.29,.04,.22-.01,1.91-2.14,1.92-2.21,0,0,0-.04-.03-.04l-.26,.21s-1.04,.97-1.63,.97c-.22,0-.38-.14-.38-.53,0-.93,2.12-3.77,2.85-3.77,.03,0,.07,.01,.1,.03,0,0,.39,.1,.39,.28,0,.04-.01,.08-.06,.12-.18,.19-1.84,1.74-1.84,2.35,0,.06,.03,.08,.08,.08,.07,0,.17-.04,.35-.15,0,0,1.98-1.35,3.09-2.57,0,0,.1-.2,.28-.2,0,0,.65,.07,.65,.29Zm-5.84,5.59c.06-.07,.08-.11,.08-.14s-.03-.03-.04-.03c-.95,0-3.4,2.63-3.4,3.31,0,.03,.03,.04,.06,.04,1.09-.35,3.3-3.19,3.3-3.19Z"/><path class="cls-1" d="M65.05,7.6c0,.46-.96,1.34-3.17,1.34-.32,0-1.16,0-1.16-.19,0-.4,3.21-.68,3.21-1.48,0-.1-.12-.18-.61-.18-1.24,0-4.24,.15-6.93,2.09,0,0-.54,.4-.54,.7,0,.42,2.02,.46,2.89,.46,1.29,.01,2.6,.31,2.6,1.39,0,2.06-4.73,3.69-7.79,3.72-.83,0-2.38-.52-2.38-1.34,0-.1,.07-.18,.31-.2,0,0,1.64-.18,2.1-.39,0,0,.11-.03,.18-.03,.04,0,.07,0,.07,.03s-.04,.08-.17,.18c-.36,.21-.72,.24-.72,.35,0,.01,.04,.03,.18,.03,.89,0,7.18-1.27,7.18-2.64,0-.21-.38-.31-.72-.31-.38,0-.84,.06-1.42,.06-1.17,0-3.65,0-3.65-1.64,0-.54,1.96-3.59,7.38-3.79,.33,0,3.16,.11,3.16,1.85Z"/><path class="cls-1" d="M64.68,9.77s.12-.1,.12-.17c0-.06-.07-.1-.29-.1-.08,0-.43,.03-.88,.03-.76,0-1.85-.01-1.91-.42,0,0-.43-.08-.43-.25,0-.1,.11-.06,.49-.13,0,0,2.78-.4,4.62-.54l.96-1.28c.07-.14,.35-.17,.64-.17,.21,0,.45,.04,.45,.21,0,.07-.04,.14-.11,.25l-.35,.49s-.07,.22-.08,.33c0,.06,.03,.1,.2,.1h.7c.68,0,1.46,.04,2.02,.38,0,0,.31,.1,.31,.25,0,.07-.04,.11-.17,.12-.42,.07-3.31,.4-4.19,.45-.53,.03-3.9,3.51-3.9,4.43,0,.08,.11,.17,.24,.17,.07,0,.18-.03,.33-.08,0,0,2.64-1.56,5.13-3.41,0,0,.12,.1,.12,.24,0,.07-.03,.17-.12,.25,0,0-3.85,3.66-5.27,4.12,0,0-.25,.07-.54,.07-.47,0-.96-.4-.96-1.36,0-.63,.96-2.27,2.88-3.97Z"/><path class="cls-1" d="M70.04,10.19c.45,0,.89-.06,1.29-.06,.14,0,.25,.03,.32,.1,.31,.4,.35,.46,.35,.53s-.04,.15-.17,.24c-.19,.17-2.7,1.73-2.7,2.5,0,.03,.03,.04,.07,.04,.51,0,2.56-1.28,5.07-3.05,0,0,.1,0,.1,.15,0,.35-4.23,4.2-5.59,4.2-.42,0-.97-.15-.97-.97,0-.63,.22-1.16,1.85-2.35-.36-.01-.81-.15-1.2-.36l-1.21,1.03c-.1,.07-.4,.15-.63,.15-.14,0-.25-.03-.25-.11,0-.06,.07-.15,.22-.28l1.46-1.04c-.32-.24-.53-.49-.53-.72s.22-.46,.82-.57c.49,.47,1.08,.57,1.7,.57Z"/><path class="cls-1" d="M72.13,13.5c0-1.73,2.63-3.85,4.13-3.85,.47,0,.9,.47,.9,.78,0,1.02-2.52,2.32-3.01,2.32-.08,0-.22-.04-.31-.21,0,0-.06-.04-.14-.04-.14,0-.56,.63-.56,1,0,.12,.04,.21,.17,.25,1.45,0,2.91-.79,5.72-2.8,.26-.18,.54-.39,.83-.6,0,0,.12,.1,.12,.24,0,.07-.03,.17-.12,.25-1.18,1.18-4.7,3.97-6.68,3.97-.74,0-1.07-.45-1.07-1.31Zm1.95-1.49s.01,.03,.04,.03c.4,0,2.13-1.28,2.13-1.61,0-.06-.04-.07-.08-.07-.54,0-2.09,1.48-2.09,1.66Z"/><path class="cls-1" d="M77.19,13.5c0-1.73,2.63-3.85,4.13-3.85,.47,0,.9,.47,.9,.78,0,1.02-2.52,2.32-3.01,2.32-.08,0-.22-.04-.31-.21,0,0-.06-.04-.14-.04-.14,0-.56,.63-.56,1,0,.12,.04,.21,.17,.25,1.45,0,2.91-.79,5.72-2.8,.26-.18,.54-.39,.83-.6,0,0,.12,.1,.12,.24,0,.07-.03,.17-.12,.25-1.18,1.18-4.7,3.97-6.68,3.97-.74,0-1.07-.45-1.07-1.31Zm1.95-1.49s.01,.03,.04,.03c.4,0,2.13-1.28,2.13-1.61,0-.06-.04-.07-.08-.07-.54,0-2.09,1.48-2.09,1.66Z"/><path class="cls-1" d="M84.94,9.77s.12-.1,.12-.17c0-.06-.07-.1-.29-.1-.08,0-.43,.03-.88,.03-.77,0-1.85-.01-1.91-.42,0,0-.43-.08-.43-.25,0-.1,.11-.06,.49-.13,0,0,2.78-.4,4.62-.54l.96-1.28c.07-.14,.35-.17,.64-.17,.21,0,.45,.04,.45,.21,0,.07-.04,.14-.11,.25l-.35,.49s-.07,.22-.08,.33c0,.06,.03,.1,.19,.1h.7c.68,0,1.46,.04,2.02,.38,0,0,.31,.1,.31,.25,0,.07-.04,.11-.17,.12-.42,.07-3.31,.4-4.19,.45-.53,.03-3.9,3.51-3.9,4.43,0,.08,.11,.17,.24,.17,.07,0,.18-.03,.33-.08,0,0,2.64-1.56,5.14-3.41,0,0,.12,.1,.12,.24,0,.07-.03,.17-.12,.25,0,0-3.86,3.66-5.27,4.12,0,0-.25,.07-.54,.07-.47,0-.96-.4-.96-1.36,0-.63,.96-2.27,2.88-3.97Z"/><path class="cls-1" d="M96.26,14.21c0,.14-.04,.22-.04,.32,0,.01,0,.03,.06,.58,0,.15-.22,.21-.22,.21-.51-.99-2.21-1.38-3.19-1.38-1.88,0-3.77,.81-4.91,.81-.86,0-1.31-.56-1.31-1.57,0-.01,0-.33,.38-.33,0,0,.11,.7,.92,.7,1.16,0,1.68-2.19,1.68-2.76,0-.03-.03-.1-.14-.1-.07,0-.21,.04-.35,.15-.65,.52-1.82,1.41-1.82,1.41-.12,.07-.29,.11-.45,.11-.14,0-.25-.08-.25-.18,0-.15,0-.17,.24-.31,.96-.67,1.63-1.25,2.81-2.31,0,0,.21-.28,.36-.28,.12,0,.96,.13,.96,.35,0,1.88-.63,2.77-.63,2.94,0,.01-.25,.56-.67,1.1,1.2-.46,2.84-.89,4.19-.89,1.24,0,2.23,.36,2.38,1.43Z"/></g><path class="cls-1" d="M14.9,9.54l-.43-5.72-1.29,.63-.33-2.43-2.79,3.78c-.95-.33-1.75-.42-2.41-.41-.04,0-.08,0-.12,0-.04,0-.08,0-.12,0-.66,0-1.46,.09-2.41,.41L.7,0,.15,9.54s-1.27,6.52,3.66,7.55l3.72,1.33,3.95-1.38s-.01,0-.02-.01c4.67-1.18,3.45-7.49,3.45-7.49Zm-12.9,1.43c2.08-1.97,3.84,1.17,3.84,1.17-2.89,2.08-3.84-1.17-3.84-1.17Zm7.21,1.17s1.75-3.14,3.84-1.17c0,0-.95,3.25-3.84,1.17Z"/></g></g></svg>